<svg xmlns="http://www.w3.org/2000/svg" height="512pt" version="1.1" viewBox="0 0 512 512.001" width="512pt">
<g id="surface1">
<path d="M 497 234.574219 L 411.308594 234.574219 C 403.027344 234.574219 396.308594 241.289062 396.308594 249.574219 L 396.308594 330.972656 L 316.898438 330.972656 C 314.75 324.367188 311.195312 318.386719 306.566406 313.414062 L 337.53125 282.449219 C 346.433594 273.550781 351.335938 261.714844 351.335938 249.121094 C 351.335938 236.53125 346.433594 224.695312 337.53125 215.796875 L 278.941406 157.210938 C 267.542969 145.808594 249.847656 135.941406 231.84375 130.085938 C 244.867188 116.257812 252.875 97.65625 252.875 77.207031 C 252.875 34.636719 218.238281 0 175.667969 0 C 133.09375 0 98.460938 34.636719 98.460938 77.207031 C 98.460938 97.65625 106.464844 116.261719 119.492188 130.089844 C 101.488281 135.941406 83.789062 145.808594 72.390625 157.210938 L 13.804688 215.796875 C 4.902344 224.699219 0 236.535156 0 249.125 C 0 261.714844 4.902344 273.550781 13.804688 282.449219 L 45.9375 314.585938 C 54.839844 323.488281 66.675781 328.390625 79.265625 328.390625 C 85.222656 328.390625 91.011719 327.292969 96.402344 325.195312 L 96.402344 464.867188 C 96.402344 490.855469 117.542969 512 143.535156 512 C 151.082031 512 158.214844 510.207031 164.542969 507.039062 C 167.289062 510.078125 171.25 512 175.667969 512 L 456.835938 512 C 487.253906 512 512 487.253906 512 456.832031 L 512 249.574219 C 512 241.289062 505.285156 234.574219 497 234.574219 Z M 175.667969 30 C 201.699219 30 222.875 51.175781 222.875 77.207031 C 222.875 103.234375 201.699219 124.414062 175.667969 124.414062 C 149.636719 124.414062 128.460938 103.234375 128.460938 77.207031 C 128.460938 51.175781 149.636719 30 175.667969 30 Z M 91.382812 293.371094 C 88.148438 296.609375 83.84375 298.390625 79.265625 298.390625 C 74.691406 298.390625 70.386719 296.609375 67.152344 293.371094 L 35.019531 261.234375 C 31.78125 258 30 253.699219 30 249.125 C 30 244.550781 31.78125 240.246094 35.015625 237.011719 C 35.015625 237.011719 35.015625 237.011719 35.019531 237.007812 L 93.605469 178.421875 C 106.390625 165.632812 133.476562 154.414062 151.566406 154.414062 L 199.765625 154.414062 C 217.855469 154.414062 244.9375 165.632812 257.726562 178.421875 L 316.316406 237.007812 C 319.550781 240.246094 321.335938 244.546875 321.335938 249.125 C 321.335938 253.699219 319.550781 258 316.316406 261.238281 L 284.179688 293.371094 C 281.003906 296.550781 276.875 298.21875 272.703125 298.371094 C 272.492188 298.367188 272.277344 298.367188 272.066406 298.367188 L 271.328125 298.367188 C 267.1875 298.1875 263.101562 296.523438 259.953125 293.371094 C 256.769531 290.1875 254.992188 285.976562 254.933594 281.480469 L 254.933594 281.03125 C 254.992188 276.539062 256.765625 272.324219 259.953125 269.140625 L 269.363281 259.730469 C 272.175781 256.914062 273.757812 253.101562 273.757812 249.121094 C 273.757812 245.144531 272.175781 241.328125 269.363281 238.515625 L 250.539062 219.695312 C 246.25 215.402344 239.796875 214.121094 234.191406 216.441406 C 228.585938 218.765625 224.933594 224.234375 224.933594 230.300781 L 224.933594 280.882812 C 224.933594 281.007812 224.933594 281.132812 224.933594 281.257812 C 224.933594 281.382812 224.933594 281.507812 224.933594 281.632812 L 224.933594 298.367188 L 126.402344 298.367188 L 126.402344 281.425781 C 126.402344 281.371094 126.402344 281.3125 126.402344 281.257812 C 126.402344 281.199219 126.402344 281.140625 126.402344 281.082031 L 126.402344 230.300781 C 126.402344 224.234375 122.746094 218.765625 117.140625 216.441406 C 111.535156 214.121094 105.085938 215.40625 100.792969 219.695312 L 81.96875 238.515625 C 79.15625 241.328125 77.574219 245.144531 77.574219 249.121094 C 77.574219 253.101562 79.15625 256.917969 81.96875 259.730469 L 91.382812 269.140625 C 94.59375 272.351562 96.375 276.613281 96.402344 281.152344 L 96.402344 281.359375 C 96.375 285.898438 94.59375 290.160156 91.382812 293.371094 Z M 143.535156 482 C 134.085938 482 126.402344 474.316406 126.402344 464.867188 L 126.402344 328.367188 L 271.652344 328.367188 C 271.859375 328.367188 272.074219 328.371094 272.285156 328.367188 C 281.632812 328.484375 289.199219 336.125 289.199219 345.5 L 289.199219 345.933594 C 289.199219 345.949219 289.199219 345.960938 289.199219 345.972656 L 289.199219 409.804688 C 289.175781 419.234375 281.5 426.898438 272.066406 426.898438 C 262.621094 426.898438 254.933594 419.214844 254.933594 409.765625 L 254.933594 377.632812 C 254.933594 369.347656 248.21875 362.632812 239.933594 362.632812 L 175.667969 362.632812 C 167.382812 362.632812 160.667969 369.347656 160.667969 377.632812 L 160.667969 441.859375 C 160.667969 441.871094 160.664062 441.886719 160.664062 441.898438 L 160.664062 464.90625 C 160.644531 474.335938 152.96875 482 143.535156 482 Z M 228.171875 426.898438 L 190.667969 426.898438 L 190.667969 392.632812 L 224.933594 392.632812 L 224.933594 409.765625 C 224.933594 415.808594 226.089844 421.585938 228.171875 426.898438 Z M 482 456.832031 C 482 470.710938 470.710938 482 456.835938 482 L 190.667969 482 L 190.667969 464.945312 C 190.667969 464.917969 190.667969 464.890625 190.667969 464.867188 L 190.667969 456.898438 L 304.199219 456.898438 C 312.484375 456.898438 319.199219 450.183594 319.199219 441.898438 L 319.199219 409.84375 C 319.199219 409.816406 319.203125 409.792969 319.203125 409.765625 L 319.203125 360.972656 L 411.308594 360.972656 C 419.59375 360.972656 426.308594 354.257812 426.308594 345.972656 L 426.308594 264.574219 L 482 264.574219 Z M 482 456.832031 " style=" stroke:none;fill-rule:nonzero;fill:rgb(0%,0%,0%);fill-opacity:1;" />
</g>
</svg>