<svg xmlns="http://www.w3.org/2000/svg" height="512pt" version="1.1" viewBox="0 0 512.00102 512" width="512pt">
<g id="surface1">
<path d="M 507.136719 114.722656 L 462.804688 70.390625 L 507.585938 25.609375 C 511.878906 21.316406 513.160156 14.867188 510.839844 9.261719 C 508.515625 3.65625 503.046875 0 496.980469 0 L 330.808594 0 C 322.527344 0 315.808594 6.71875 315.808594 15 L 315.808594 199.59375 L 290.457031 174.238281 C 266.820312 150.605469 231.292969 131.304688 203.371094 125.914062 C 214.214844 112.617188 220.730469 95.660156 220.730469 77.203125 C 220.730469 34.632812 186.097656 0 143.527344 0 C 100.957031 0 66.324219 34.632812 66.324219 77.203125 C 66.324219 94.972656 72.371094 111.347656 82.5 124.40625 L 47.128906 124.410156 C 21.144531 124.410156 0 145.554688 0 171.542969 L 0 300.070312 C 0 326.058594 21.144531 347.203125 47.132812 347.203125 C 53.171875 347.203125 58.953125 346.0625 64.265625 343.980469 L 64.265625 464.851562 C 64.265625 490.839844 85.410156 511.984375 111.398438 511.984375 C 123.800781 511.984375 135.105469 507.164062 143.527344 499.304688 C 151.953125 507.164062 163.253906 511.984375 175.660156 511.984375 C 201.648438 511.984375 222.792969 490.839844 222.792969 464.851562 L 222.792969 239.882812 L 265.351562 282.441406 C 274.253906 291.34375 286.089844 296.246094 298.679688 296.246094 C 304.636719 296.246094 310.421875 295.136719 315.8125 293.035156 L 315.8125 496.984375 C 315.8125 505.269531 322.527344 511.984375 330.8125 511.984375 C 339.09375 511.984375 345.8125 505.269531 345.8125 496.984375 L 345.8125 140.78125 L 496.980469 140.78125 C 496.988281 140.78125 496.996094 140.78125 497 140.78125 C 505.285156 140.78125 512 134.066406 512 125.78125 C 512 121.402344 510.125 117.464844 507.136719 114.722656 Z M 96.324219 77.207031 C 96.324219 51.175781 117.5 30 143.527344 30 C 169.554688 30 190.730469 51.175781 190.730469 77.207031 C 190.730469 103.207031 169.597656 124.367188 143.605469 124.410156 L 143.449219 124.410156 C 117.457031 124.367188 96.324219 103.207031 96.324219 77.207031 Z M 175.660156 481.984375 C 166.210938 481.984375 158.527344 474.300781 158.527344 464.851562 L 158.527344 352.386719 C 158.527344 344.105469 151.8125 337.390625 143.527344 337.390625 C 135.242188 337.390625 128.527344 344.105469 128.527344 352.386719 L 128.527344 464.851562 C 128.527344 474.300781 120.84375 481.984375 111.394531 481.984375 C 101.949219 481.984375 94.261719 474.300781 94.261719 464.851562 L 94.261719 303.125 L 192.792969 303.125 L 192.792969 464.851562 C 192.792969 474.300781 185.105469 481.984375 175.660156 481.984375 Z M 310.792969 261.230469 C 307.554688 264.464844 303.253906 266.246094 298.679688 266.246094 C 294.101562 266.246094 289.800781 264.464844 286.5625 261.230469 L 218.398438 193.066406 C 214.109375 188.773438 207.65625 187.492188 202.054688 189.8125 C 196.449219 192.136719 192.792969 197.605469 192.792969 203.671875 L 192.792969 273.125 L 94.265625 273.125 L 94.265625 207.792969 C 94.265625 199.511719 87.546875 192.796875 79.265625 192.796875 C 70.980469 192.796875 64.265625 199.511719 64.265625 207.792969 L 64.265625 300.070312 C 64.265625 309.519531 56.578125 317.203125 47.132812 317.203125 C 37.683594 317.203125 30 309.519531 30 300.070312 L 30 171.542969 C 30 162.09375 37.683594 154.410156 47.132812 154.410156 L 143.449219 154.40625 C 143.476562 154.40625 143.5 154.410156 143.527344 154.410156 C 143.554688 154.410156 143.582031 154.40625 143.605469 154.40625 L 188.96875 154.40625 C 207.523438 154.40625 245.054688 171.265625 269.246094 195.453125 L 310.792969 237.003906 C 317.472656 243.679688 317.472656 254.550781 310.792969 261.230469 Z M 345.808594 110.78125 L 345.808594 30 L 460.769531 30 L 430.984375 59.785156 C 428.171875 62.597656 426.589844 66.414062 426.589844 70.390625 C 426.589844 74.367188 428.171875 78.183594 430.984375 80.996094 L 460.769531 110.78125 Z M 345.808594 110.78125 " style=" stroke:none;fill-rule:nonzero;fill:rgb(0%,0%,0%);fill-opacity:1;" />
</g>
</svg>