<svg xmlns="http://www.w3.org/2000/svg" height="512pt" version="1.1" viewBox="0 -80 512.001 512" width="512pt">
<g id="surface1">
<path d="M 509.453125 167.304688 C 508.308594 165.605469 480.980469 125.199219 436.574219 84.300781 C 410.285156 60.085938 383.429688 40.746094 356.753906 26.808594 C 322.703125 9.019531 288.804688 0 256 0 C 223.199219 0 189.300781 9.019531 155.246094 26.808594 C 128.570312 40.746094 101.714844 60.085938 75.425781 84.300781 C 31.023438 125.199219 3.691406 165.605469 2.546875 167.304688 C -0.847656 172.363281 -0.847656 178.972656 2.546875 184.03125 C 3.691406 185.730469 31.023438 226.136719 75.425781 267.035156 C 101.714844 291.246094 128.570312 310.589844 155.246094 324.523438 C 189.300781 342.3125 223.199219 351.332031 256 351.332031 C 288.804688 351.332031 322.703125 342.3125 356.753906 324.523438 C 383.429688 310.589844 410.285156 291.246094 436.574219 267.035156 C 480.980469 226.136719 508.308594 185.730469 509.453125 184.03125 C 512.851562 178.972656 512.851562 172.363281 509.453125 167.304688 Z M 256 321.332031 C 251.515625 321.332031 247.058594 321.121094 242.632812 320.726562 C 242.546875 320.71875 242.46875 320.699219 242.382812 320.691406 C 167.101562 313.722656 110.335938 251.375 110.335938 175.667969 C 110.335938 99.957031 167.101562 37.609375 242.382812 30.640625 C 242.46875 30.632812 242.550781 30.613281 242.636719 30.605469 C 247.066406 30.21875 251.519531 30 256 30 C 260.484375 30 264.941406 30.210938 269.371094 30.605469 C 269.453125 30.613281 269.535156 30.632812 269.617188 30.640625 C 344.898438 37.613281 401.667969 99.957031 401.667969 175.667969 C 401.667969 251.375 344.898438 313.722656 269.617188 320.691406 C 269.535156 320.699219 269.453125 320.71875 269.371094 320.726562 C 264.945312 321.121094 260.488281 321.332031 256 321.332031 Z M 33.457031 175.671875 C 43.269531 162.46875 64.597656 135.496094 93.726562 108.308594 C 84.949219 129.449219 80.335938 152.285156 80.335938 175.667969 C 80.335938 199.085938 84.964844 221.960938 93.765625 243.125 C 64.664062 215.996094 43.285156 188.914062 33.457031 175.671875 Z M 418.234375 243.125 C 427.039062 221.957031 431.667969 199.085938 431.667969 175.667969 C 431.667969 152.25 427.039062 129.375 418.234375 108.207031 C 447.34375 135.339844 468.722656 162.421875 478.546875 175.667969 C 468.71875 188.910156 447.34375 215.992188 418.234375 243.125 Z M 418.234375 243.125 " style=" stroke:none;fill-rule:nonzero;fill:rgb(0%,0%,0%);fill-opacity:1;" />
<path d="M 271 269.816406 C 311.578125 263.375 343.710938 231.246094 350.152344 190.667969 L 360.433594 190.667969 C 368.71875 190.667969 375.433594 183.953125 375.433594 175.667969 C 375.433594 167.382812 368.71875 160.667969 360.433594 160.667969 L 350.152344 160.667969 C 343.710938 120.089844 311.578125 87.957031 271 81.515625 L 271 71.234375 C 271 62.949219 264.285156 56.234375 256 56.234375 C 247.714844 56.234375 241 62.949219 241 71.234375 L 241 81.515625 C 200.421875 87.957031 168.292969 120.089844 161.851562 160.667969 L 151.570312 160.667969 C 143.285156 160.667969 136.570312 167.382812 136.570312 175.667969 C 136.570312 183.953125 143.285156 190.667969 151.570312 190.667969 L 161.851562 190.667969 C 168.292969 231.246094 200.421875 263.375 241 269.816406 L 241 280.101562 C 241 288.382812 247.714844 295.101562 256 295.101562 C 264.285156 295.101562 271 288.382812 271 280.101562 Z M 192.425781 190.667969 L 199.765625 190.667969 C 208.050781 190.667969 214.765625 183.949219 214.765625 175.667969 C 214.765625 167.382812 208.050781 160.667969 199.765625 160.667969 L 192.425781 160.667969 C 198.085938 136.671875 217.003906 117.75 241 112.089844 L 241 119.433594 C 241 127.71875 247.714844 134.433594 256 134.433594 C 264.285156 134.433594 271 127.71875 271 119.433594 L 271 112.089844 C 294.996094 117.75 313.914062 136.671875 319.578125 160.667969 L 312.234375 160.667969 C 303.949219 160.667969 297.234375 167.382812 297.234375 175.667969 C 297.234375 183.949219 303.949219 190.667969 312.234375 190.667969 L 319.578125 190.667969 C 313.914062 214.664062 294.996094 233.582031 271 239.242188 L 271 231.902344 C 271 223.617188 264.285156 216.902344 256 216.902344 C 247.714844 216.902344 241 223.617188 241 231.902344 L 241 239.242188 C 217.003906 233.582031 198.085938 214.664062 192.425781 190.667969 Z M 192.425781 190.667969 " style=" stroke:none;fill-rule:nonzero;fill:rgb(0%,0%,0%);fill-opacity:1;" />
</g>
</svg>