<svg xmlns="http://www.w3.org/2000/svg" height="512pt" version="1.1" viewBox="-67 0 512 512" width="512pt">
<g id="surface1">
<path d="M 286.957031 164.503906 C 290.890625 161.796875 293.472656 157.269531 293.472656 152.136719 C 293.472656 145.105469 288.625 139.21875 282.09375 137.59375 L 365.679688 54.007812 C 382.042969 37.648438 379.914062 24.175781 377.191406 17.601562 C 374.46875 11.027344 366.445312 0 343.308594 0 L 109.207031 0 C 109.199219 0 109.199219 0 109.195312 0 L 35.757812 0 C 12.621094 0 4.597656 11.027344 1.875 17.601562 C -0.847656 24.175781 -2.976562 37.648438 13.386719 54.007812 L 96.972656 137.597656 C 90.441406 139.21875 85.597656 145.105469 85.597656 152.136719 C 85.597656 157.269531 88.179688 161.800781 92.109375 164.503906 C 38.175781 197.449219 2.101562 256.875 2.101562 324.570312 C 2.101562 427.917969 86.183594 512 189.535156 512 C 292.882812 512 376.964844 427.917969 376.964844 324.566406 C 376.964844 256.875 340.886719 197.449219 286.957031 164.503906 Z M 346.851562 30.171875 C 346.238281 30.929688 345.457031 31.808594 344.46875 32.796875 L 240.125 137.136719 L 168.941406 137.136719 L 176.367188 129.714844 C 176.367188 129.714844 176.367188 129.710938 176.371094 129.710938 L 190.558594 115.519531 L 276.082031 30 L 343.308594 30 C 344.707031 30 345.878906 30.066406 346.851562 30.171875 Z M 189.535156 74.121094 L 145.414062 30 L 233.652344 30 Z M 32.214844 30.167969 C 33.1875 30.066406 34.359375 30 35.757812 30 L 102.984375 30 L 168.320312 95.332031 L 132.726562 130.925781 L 34.597656 32.796875 C 33.609375 31.808594 32.828125 30.929688 32.214844 30.167969 Z M 189.535156 482 C 102.726562 482 32.101562 411.375 32.101562 324.566406 C 32.101562 237.761719 102.726562 167.136719 189.535156 167.136719 C 276.339844 167.136719 346.964844 237.761719 346.964844 324.566406 C 346.964844 411.375 276.339844 482 189.535156 482 Z M 189.535156 482 " style=" stroke:none;fill-rule:nonzero;fill:rgb(0%,0%,0%);fill-opacity:1;" />
<path d="M 230.875 268.226562 L 202.984375 211.71875 C 200.457031 206.597656 195.242188 203.355469 189.535156 203.355469 L 189.53125 203.355469 C 183.824219 203.355469 178.609375 206.597656 176.082031 211.71875 L 148.191406 268.226562 L 85.832031 277.285156 C 80.183594 278.109375 75.488281 282.066406 73.722656 287.496094 C 71.960938 292.925781 73.429688 298.886719 77.519531 302.871094 L 122.644531 346.859375 L 111.992188 408.964844 C 111.027344 414.59375 113.339844 420.28125 117.957031 423.636719 C 122.578125 426.992188 128.703125 427.433594 133.753906 424.777344 L 189.53125 395.453125 L 245.304688 424.777344 C 247.5 425.933594 249.898438 426.5 252.285156 426.5 C 252.304688 426.5 252.320312 426.5 252.339844 426.5 C 260.609375 426.484375 267.308594 419.773438 267.308594 411.5 C 267.308594 410.347656 267.179688 409.226562 266.933594 408.152344 L 256.421875 346.859375 L 301.542969 302.871094 C 305.632812 298.886719 307.101562 292.925781 305.339844 287.496094 C 303.574219 282.066406 298.878906 278.109375 293.230469 277.285156 Z M 229.832031 330.878906 C 226.296875 334.324219 224.683594 339.289062 225.519531 344.15625 L 232.367188 384.078125 L 196.515625 365.230469 C 192.144531 362.933594 186.925781 362.933594 182.554688 365.230469 L 146.699219 384.082031 L 153.546875 344.15625 C 154.382812 339.289062 152.769531 334.324219 149.234375 330.878906 L 120.226562 302.605469 L 160.3125 296.78125 C 165.195312 296.070312 169.421875 293.003906 171.605469 288.574219 L 189.53125 252.25 L 207.460938 288.574219 C 209.648438 293.003906 213.867188 296.070312 218.753906 296.78125 L 258.839844 302.605469 Z M 229.832031 330.878906 " style=" stroke:none;fill-rule:nonzero;fill:rgb(0%,0%,0%);fill-opacity:1;" />
</g>
</svg>