<svg xmlns="http://www.w3.org/2000/svg" height="512pt" version="1.1" viewBox="-64 0 512 512" width="512pt">
<g id="surface1">
<path d="M 369.660156 281.394531 C 360.761719 272.492188 348.925781 267.589844 336.335938 267.589844 C 323.742188 267.589844 311.910156 272.492188 303.007812 281.394531 L 268.929688 315.472656 C 268.765625 283.746094 249.375 256.488281 221.832031 244.78125 L 238.113281 228.503906 L 280.101562 228.503906 C 310.519531 228.503906 335.265625 203.757812 335.265625 173.339844 L 335.265625 55.164062 C 335.265625 24.746094 310.519531 0 280.101562 0 L 103.367188 0 C 72.949219 0 48.203125 24.746094 48.203125 55.164062 L 48.203125 173.335938 C 48.203125 203.757812 72.949219 228.503906 103.367188 228.503906 L 145.355469 228.503906 L 161.632812 244.78125 C 134.09375 256.488281 114.703125 283.746094 114.539062 315.472656 L 80.464844 281.394531 C 71.5625 272.492188 59.726562 267.589844 47.132812 267.589844 C 34.542969 267.589844 22.707031 272.492188 13.804688 281.394531 C 4.902344 290.296875 0 302.132812 0 314.722656 C 0 327.3125 4.902344 339.152344 13.804688 348.050781 L 112.46875 446.714844 L 112.46875 497 C 112.46875 505.285156 119.183594 512 127.46875 512 L 256 512 C 264.285156 512 271 505.285156 271 497 L 271 446.714844 L 369.660156 348.054688 C 378.5625 339.152344 383.46875 327.3125 383.46875 314.722656 C 383.46875 302.132812 378.566406 290.296875 369.660156 281.394531 Z M 103.367188 198.503906 C 89.492188 198.503906 78.203125 187.214844 78.203125 173.335938 L 78.203125 55.164062 C 78.203125 41.289062 89.492188 30 103.367188 30 L 280.101562 30 C 293.976562 30 305.265625 41.289062 305.265625 55.164062 L 305.265625 173.335938 C 305.265625 187.214844 293.976562 198.503906 280.101562 198.503906 L 231.898438 198.503906 C 227.921875 198.503906 224.105469 200.082031 221.292969 202.898438 L 191.734375 232.457031 L 162.175781 202.898438 C 159.359375 200.082031 155.546875 198.503906 151.566406 198.503906 Z M 191.734375 268.671875 C 217.761719 268.671875 238.9375 289.847656 238.9375 315.875 C 238.9375 341.90625 217.761719 363.082031 191.734375 363.082031 C 165.703125 363.082031 144.527344 341.90625 144.527344 315.875 C 144.527344 289.847656 165.703125 268.671875 191.734375 268.671875 Z M 348.449219 326.839844 L 245.394531 429.894531 C 242.582031 432.707031 241 436.523438 241 440.503906 L 241 482 L 142.46875 482 L 142.46875 440.5 C 142.46875 436.523438 140.886719 432.707031 138.074219 429.894531 L 35.019531 326.839844 C 31.78125 323.601562 30 319.300781 30 314.726562 C 30 310.148438 31.78125 305.84375 35.019531 302.609375 C 38.257812 299.371094 42.558594 297.589844 47.132812 297.589844 C 51.710938 297.589844 56.011719 299.371094 59.25 302.609375 L 145.328125 388.691406 C 148.140625 391.503906 151.957031 393.082031 155.933594 393.082031 L 227.53125 393.082031 C 231.511719 393.082031 235.324219 391.503906 238.136719 388.691406 L 324.21875 302.609375 C 327.453125 299.375 331.757812 297.589844 336.335938 297.589844 C 340.910156 297.589844 345.210938 299.371094 348.449219 302.609375 C 351.683594 305.84375 353.46875 310.148438 353.46875 314.722656 C 353.46875 319.300781 351.683594 323.601562 348.449219 326.839844 Z M 348.449219 326.839844 " style=" stroke:none;fill-rule:nonzero;fill:rgb(0%,0%,0%);fill-opacity:1;" />
<path d="M 177.535156 157.652344 C 181.371094 157.652344 185.210938 156.1875 188.140625 153.261719 L 244.945312 96.453125 C 250.804688 90.597656 250.804688 81.101562 244.945312 75.242188 C 239.089844 69.382812 229.589844 69.382812 223.730469 75.242188 L 177.535156 121.441406 L 159.738281 103.644531 C 153.882812 97.789062 144.382812 97.789062 138.523438 103.644531 C 132.667969 109.503906 132.667969 119 138.523438 124.859375 L 166.925781 153.261719 C 169.855469 156.1875 173.695312 157.652344 177.535156 157.652344 Z M 177.535156 157.652344 " style=" stroke:none;fill-rule:nonzero;fill:rgb(0%,0%,0%);fill-opacity:1;" />
</g>
</svg>