<svg xmlns="http://www.w3.org/2000/svg" height="511pt" version="1.1" viewBox="-33 1 511 511.999" width="511pt">
<g id="surface1">
<path d="M 237.816406 80.335938 C 167.53125 80.335938 110.347656 137.515625 110.347656 207.800781 C 110.347656 278.085938 167.53125 335.265625 237.816406 335.265625 C 308.101562 335.265625 365.28125 278.085938 365.28125 207.800781 C 365.28125 137.515625 308.101562 80.335938 237.816406 80.335938 Z M 237.816406 305.265625 C 184.074219 305.265625 140.347656 261.542969 140.347656 207.800781 C 140.347656 154.058594 184.074219 110.335938 237.816406 110.335938 C 291.558594 110.335938 335.28125 154.058594 335.28125 207.800781 C 335.28125 261.542969 291.558594 305.265625 237.816406 305.265625 Z M 237.816406 305.265625 " style=" stroke:none;fill-rule:nonzero;fill:rgb(0%,0%,0%);fill-opacity:1;" />
<path d="M 269.8125 168.792969 L 223.613281 214.988281 L 205.820312 197.195312 C 199.960938 191.335938 190.464844 191.335938 184.605469 197.195312 C 178.75 203.050781 178.75 212.550781 184.605469 218.40625 L 213.007812 246.808594 C 215.9375 249.738281 219.777344 251.203125 223.613281 251.203125 C 227.453125 251.203125 231.292969 249.738281 234.222656 246.808594 L 291.027344 190.003906 C 296.882812 184.148438 296.882812 174.648438 291.027344 168.789062 C 285.167969 162.933594 275.671875 162.933594 269.8125 168.792969 Z M 269.8125 168.792969 " style=" stroke:none;fill-rule:nonzero;fill:rgb(0%,0%,0%);fill-opacity:1;" />
<path d="M 237.816406 0 C 124.082031 0 31.394531 91.839844 30.03125 205.257812 L 5.296875 277.40625 C -1.5 297.226562 -1.054688 314.671875 6.515625 325.273438 C 11.050781 331.625 18.058594 335.265625 25.738281 335.265625 L 30.019531 335.265625 L 30.019531 360.433594 C 30.019531 390.851562 54.765625 415.601562 85.183594 415.601562 C 99.0625 415.601562 110.351562 426.890625 110.351562 440.765625 L 110.351562 456.832031 C 110.351562 487.253906 135.097656 512 165.519531 512 L 277.984375 512 C 308.402344 512 333.152344 487.253906 333.152344 456.832031 L 333.152344 392.449219 C 365.011719 375.984375 392.074219 351.578125 411.820312 321.40625 C 433.929688 287.621094 445.617188 248.339844 445.617188 207.800781 C 445.617188 93.21875 352.398438 0 237.816406 0 Z M 311.890625 369.449219 C 306.5625 371.894531 303.148438 377.222656 303.148438 383.082031 L 303.148438 456.835938 C 303.148438 470.710938 291.859375 482 277.984375 482 L 165.515625 482 C 151.640625 482 140.347656 470.710938 140.347656 456.835938 L 140.347656 440.765625 C 140.347656 410.347656 115.601562 385.601562 85.183594 385.601562 C 71.304688 385.601562 60.015625 374.3125 60.015625 360.433594 L 60.015625 320.265625 C 60.015625 311.984375 53.300781 305.265625 45.015625 305.265625 L 30.582031 305.265625 C 30.328125 301.917969 30.6875 295.847656 33.675781 287.136719 L 59.207031 212.664062 C 59.742188 211.101562 60.019531 209.457031 60.019531 207.800781 C 60.015625 109.761719 139.777344 30 237.816406 30 C 335.855469 30 415.617188 109.761719 415.617188 207.800781 C 415.617188 277.070312 374.902344 340.523438 311.890625 369.449219 Z M 311.890625 369.449219 " style=" stroke:none;fill-rule:nonzero;fill:rgb(0%,0%,0%);fill-opacity:1;" />
</g>
</svg>