<svg xmlns="http://www.w3.org/2000/svg" height="512pt" version="1.1" viewBox="0 0 512 512" width="512pt">
<g id="surface1">
<path d="M 456.835938 417.734375 L 392.566406 417.734375 C 379.921875 417.734375 368.261719 421.398438 358.945312 427.535156 C 352.382812 417.113281 342.441406 409.03125 330.660156 404.84375 C 333.609375 398.6875 335.269531 391.800781 335.269531 384.535156 L 335.269531 208.046875 L 433.929688 109.382812 C 442.832031 100.480469 447.734375 88.644531 447.734375 76.054688 C 447.734375 63.464844 442.832031 51.628906 433.929688 42.726562 C 425.027344 33.824219 413.191406 28.921875 400.601562 28.921875 C 388.011719 28.921875 376.175781 33.824219 367.273438 42.726562 L 333.195312 76.804688 C 332.976562 34.417969 298.4375 0 256 0 C 213.5625 0 179.023438 34.417969 178.804688 76.804688 L 144.730469 42.726562 C 135.828125 33.824219 123.992188 28.921875 111.398438 28.921875 C 98.808594 28.921875 86.972656 33.824219 78.074219 42.726562 C 59.695312 61.105469 59.695312 91.007812 78.070312 109.382812 L 176.734375 208.046875 L 176.734375 384.535156 C 176.734375 391.804688 178.390625 398.691406 181.339844 404.84375 C 169.558594 409.03125 159.613281 417.113281 153.054688 427.539062 C 143.738281 421.398438 132.078125 417.734375 119.433594 417.734375 L 55.167969 417.734375 C 24.746094 417.734375 0 438.878906 0 464.867188 L 0 497 C 0 505.285156 6.714844 512 15 512 L 497 512 C 505.285156 512 512 505.285156 512 497 L 512 464.867188 C 512 438.878906 487.253906 417.734375 456.835938 417.734375 Z M 206.734375 384.535156 L 206.734375 303.132812 L 241 303.132812 L 241 384.535156 C 241 393.980469 233.3125 401.667969 223.867188 401.667969 C 214.421875 401.667969 206.734375 393.980469 206.734375 384.535156 Z M 271 384.535156 L 271 303.132812 L 305.269531 303.132812 L 305.269531 384.535156 C 305.269531 393.980469 297.582031 401.667969 288.136719 401.667969 C 278.6875 401.667969 271 393.980469 271 384.535156 Z M 256 30 C 282.027344 30 303.203125 51.175781 303.203125 77.207031 C 303.203125 103.238281 282.027344 124.414062 256 124.414062 C 229.972656 124.414062 208.796875 103.238281 208.796875 77.207031 C 208.796875 51.175781 229.972656 30 256 30 Z M 99.285156 88.167969 C 92.605469 81.488281 92.605469 70.621094 99.285156 63.9375 C 102.523438 60.703125 106.824219 58.921875 111.398438 58.921875 C 115.976562 58.921875 120.28125 60.703125 123.515625 63.941406 L 209.59375 150.019531 C 212.40625 152.835938 216.222656 154.414062 220.199219 154.414062 L 291.800781 154.414062 C 295.777344 154.414062 299.59375 152.835938 302.40625 150.019531 L 388.488281 63.941406 C 391.722656 60.703125 396.023438 58.921875 400.601562 58.921875 C 405.175781 58.921875 409.480469 60.703125 412.714844 63.941406 C 419.394531 70.621094 419.394531 81.488281 412.714844 88.171875 L 309.660156 191.226562 C 306.847656 194.039062 305.269531 197.855469 305.269531 201.832031 L 305.269531 273.132812 L 206.734375 273.132812 L 206.734375 201.832031 C 206.734375 197.855469 205.15625 194.039062 202.339844 191.226562 Z M 30 464.867188 C 30 455.738281 41.761719 447.734375 55.167969 447.734375 L 119.433594 447.734375 C 132.839844 447.734375 144.601562 455.738281 144.601562 464.867188 L 144.601562 482 L 30 482 Z M 337.398438 482 L 174.601562 482 L 174.601562 456.835938 C 174.601562 442.957031 185.890625 431.667969 199.769531 431.667969 L 312.234375 431.667969 C 326.109375 431.667969 337.402344 442.957031 337.402344 456.835938 L 337.402344 482 Z M 482 482 L 367.402344 482 L 367.402344 464.867188 C 367.402344 455.738281 379.160156 447.734375 392.566406 447.734375 L 456.835938 447.734375 C 470.238281 447.734375 482 455.738281 482 464.867188 Z M 482 482 " style=" stroke:none;fill-rule:nonzero;fill:rgb(0%,0%,0%);fill-opacity:1;" />
</g>
</svg>